<?xml version="1.0" standalone="no"?><!DOCTYPE svg PUBLIC "-//W3C//DTD SVG 1.1//EN" "http://www.w3.org/Graphics/SVG/1.1/DTD/svg11.dtd"><svg t="1583553725583" class="icon" viewBox="0 0 1024 1024" version="1.1" xmlns="http://www.w3.org/2000/svg" p-id="9134" xmlns:xlink="http://www.w3.org/1999/xlink" width="200" height="200"><defs><style type="text/css"></style></defs><path d="M510.27306667 0c-281.81546667 0-510.27306667 228.4576-510.27306667 510.27306667s228.4576 510.27306667 510.27306667 510.27306666c281.8176 0 510.27306667-228.4576 510.27306666-510.27306666s-228.45653333-510.27306667-510.27306666-510.27306667zM137.7984 563.22986667c-9.76426667 0-17.73333333-7.6896-17.73333333-17.15733334v-102.94933333c0-9.43146667 7.96906667-17.14453333 17.73333333-17.14453333h187.13493333l-81.47626666 137.2512h-105.65866667zM253.37066667 756.87253333l-59.72586667 39.33333334c-8.032 5.31946667-13.71733333 1.94453333-12.60373333-7.42613334l7.96906666-67.3024c1.11146667-9.36746667 8.93013333-13.20426667 17.38773334-8.51306666l46.21866666 25.6672c8.4416 4.7104 8.7872 12.95893333 0.75413334 18.24106666zM267.70986667 718.944l-46.21866667-25.6704c-8.45013333-4.7072-11.4304-15.22986667-6.50986667-23.41013333l214.01386667-360.6368c4.8544-8.19733333 15.80266667-11.07306667 24.24426667-6.32106667l46.21866666 25.616c8.45333333 4.7456 11.36426667 15.27786667 6.51626667 23.4464l-214.01706667 360.66666667c-4.8512 8.18453333-15.80266667 10.9856-24.24746666 6.30933333zM430.5984 563.22986667l81.46986667-137.2512h46.912l66.16426666 137.2512h-194.54613333zM695.9552 604.18986667c-18.50453333-8.97173333-110.65386667-214.74346667-134.26453333-268.43306667-23.632-53.68746667-95.00053333-196.6016-71.91786667-207.71093333 16.42773333-7.9808 75.3792 104.55786667 119.5776 172.112 44.13546667 67.56266667 136.4288 241.76746667 147.78346667 261.60746666 11.30133333 19.88586667-10.87253333 36.46613333-23.19893334 41.42186667-12.34026667 4.9696-19.49013333 9.91146667-37.97973333 1.0016zM756.5088 698.77333333l-27.8464-42.57173333c-5.7568-8.84266667-2.76693333-19.77493333 6.57066667-24.4512l26.53973333-13.20746667c9.35893333-4.62186667 21.07093333-0.88533333 26.048 8.38293334l21.96906667 40.87893333c4.9952 9.2544 1.59146667 21.12533333-7.41973334 26.3424l-18.9792 10.98026667c-9.008 5.3024-21.1264 2.42346667-26.8832-6.35413334zM858.97813333 810.43306667c-5.81653333-18.03093333-50.22933333-19.23093333-70.11413333-46.39573334-19.952-27.06453333-3.46453333-41.0144 3.46346667-47.44853333 80.6528-43.95946667 66.6496 93.84533333 66.6496 93.84533333zM882.75093333 563.22986667h-93.6736c-1.03253333-5.2864-2.7104-10.58666667-5.53813333-15.5424-2.44053333-4.22933333-8.60266667-15.60853333-17.1904-31.49866667-12.3968-22.91093333-30.2048-55.69173333-49.26506667-90.21013333h165.65866667c9.76426667 0 17.73013333 7.71413333 17.73013333 17.15093333v102.94293333h0.00853334c-0.00106667 9.46666667-7.96693333 17.15733333-17.7312 17.15733334z" p-id="9135"></path></svg>