<?xml version="1.0" standalone="no"?><!DOCTYPE svg PUBLIC "-//W3C//DTD SVG 1.1//EN" "http://www.w3.org/Graphics/SVG/1.1/DTD/svg11.dtd"><svg t="1577694514678" class="icon" viewBox="0 0 1152 1024" version="1.1" xmlns="http://www.w3.org/2000/svg" p-id="7896" xmlns:xlink="http://www.w3.org/1999/xlink" width="225" height="200"><defs><style type="text/css"></style></defs><path d="M1152 480c0-47.26-25.9-88.08-64-110.24V64.02C1088 46.52 1074.04 0 1024 0c-14.24 0-28.38 4.76-39.96 14.04l-170.06 136.06C728.56 218.38 621.32 256 512 256H128c-70.7 0-128 57.3-128 128v192c0 70.7 57.3 128 128 128h67.4c-2.78 20.96-4.36 42.28-4.36 64 0 79.54 18.52 154.7 51.12 221.88 10.38 21.38 33.04 34.12 56.8 34.12h148.56c52.1 0 83.38-59.68 51.8-101.12-32.8-43.04-52.3-96.72-52.3-154.88 0-22.22 3.24-43.58 8.82-64H512c109.32 0 216.56 37.62 301.96 105.9l170.06 136.06a64.046 64.046 0 0 0 39.96 14.04c49.84 0 64-45.56 64-64V590.26C1126.1 568.08 1152 527.26 1152 480z m-192 282.84l-66.1-52.88C785.9 623.56 650.24 576 512 576v-192c138.24 0 273.9-47.56 381.9-133.96L960 197.16v565.68z" p-id="7897"></path></svg>