<?xml version="1.0" standalone="no"?><!DOCTYPE svg PUBLIC "-//W3C//DTD SVG 1.1//EN" "http://www.w3.org/Graphics/SVG/1.1/DTD/svg11.dtd"><svg t="1588836482960" class="icon" viewBox="0 0 1024 1024" version="1.1" xmlns="http://www.w3.org/2000/svg" p-id="1976" xmlns:xlink="http://www.w3.org/1999/xlink" width="200" height="200"><defs><style type="text/css"></style></defs><path d="M801.76434101 705.22094888c-53.3515995 0-96.58811329 43.24568784-96.5881133 96.6099005 0 53.36306704 43.23536705 96.60875374 96.5881133 96.60875376 53.35045274 0 96.58696654-43.24568784 96.58696653-96.60875376C898.35016079 748.46548997 855.11479374 705.21980213 801.76434101 705.22094888z" p-id="1977"></path><path d="M984.67755732 472.60265475L898.35016079 318.78019787c-17.65581788-21.28399261-29.57810985-38.64396021-57.95218038-38.64396021L705.17508095 280.13623766 705.17508095 164.20321031c0-21.28399261-17.35538058-38.64281345-38.63478728-38.64281345L48.37797225 125.56039574C27.09856666 125.56039574 9.74318608 142.9192177 9.74318608 164.20321031l0 579.65940526c0 21.2862861 17.35538058 38.64510695 38.63478728 38.64510696l77.04252621 0C134.89457539 715.93461341 191.7149575 664.38907455 260.87159304 664.38907455S386.84975745 715.93461341 396.32268763 782.50772253l269.98941202-0.03898852c9.50847845-66.56737535 66.32886056-118.07965946 135.45224136-118.07965946 69.1577823 0 125.97701765 51.5466856 135.45109459 118.11864798l38.40773891 0C996.90143334 782.50772253 1014.25681392 765.14890169 1014.25681392 743.86376234c0 0 0-156.61124334 0-193.21980213C1014.25566829 514.03654816 984.67755732 472.60265475 984.67755732 472.60265475zM743.81101388 550.64396021L743.81101388 357.42415807l94.51143096 0c6.22431545 0 14.86703141 9.13235874 14.86703142 9.13235875l81.34266978 151.25613065c7.20474775 10.60358171 15.0172495 23.17146944 15.0172495 32.83131274L743.81101388 550.64396021z" p-id="1978"></path><path d="M260.87159304 705.22094888c-53.3515995 0-96.58811329 43.24568784-96.5881133 96.6099005C164.28462537 855.19391642 207.5211403 898.43960426 260.87159304 898.43960426s96.58811329-43.24568784 96.58811329-96.60875375C357.45970633 748.46548997 314.22204578 705.21980213 260.87159304 705.22094888z" p-id="1979"></path></svg>