<?xml version="1.0" standalone="no"?><!DOCTYPE svg PUBLIC "-//W3C//DTD SVG 1.1//EN" "http://www.w3.org/Graphics/SVG/1.1/DTD/svg11.dtd"><svg t="1588836886826" class="icon" viewBox="0 0 1024 1024" version="1.1" xmlns="http://www.w3.org/2000/svg" p-id="2006" xmlns:xlink="http://www.w3.org/1999/xlink" width="200" height="200"><defs><style type="text/css"></style></defs><path d="M905.10222222 47.21777778h-786.20444444c-40.16355555 0-72.81777778 32.65422222-72.81777778 72.81777777v783.9288889c0 40.16355555 32.65422222 72.81777778 72.81777778 72.81777777h786.20444444c40.16355555 0 72.81777778-32.65422222 72.81777778-72.81777777v-783.9288889c0-40.16355555-32.65422222-72.81777778-72.81777778-72.81777777zM769.59288889 315.05066667C764.01777778 449.87733333 652.97066667 557.51111111 516.77866667 557.51111111c-134.94044445 0-245.19111111-105.58577778-252.58666667-238.592-27.87555555-8.53333333-48.24177778-34.58844445-48.24177778-65.30844444 0-37.66044445 30.60622222-68.26666667 68.26666667-68.26666667s68.26666667 30.60622222 68.26666666 68.26666667c0 26.51022222-15.13244445 49.49333333-37.3191111 60.87111111 5.23377778 106.83733333 93.52533333 191.82933333 201.61422222 191.82933333 106.83733333 0 194.21866667-82.944 201.38666666-187.96088889-27.07911111-9.10222222-46.53511111-34.58844445-46.53511111-64.73955555 0-37.66044445 30.60622222-68.26666667 68.26666667-68.26666667s68.26666667 30.60622222 68.26666666 68.26666667c-0.11377778 26.96533333-15.81511111 50.40355555-38.57066666 61.44z" p-id="2007"></path></svg>
