<?xml version="1.0" standalone="no"?><!DOCTYPE svg PUBLIC "-//W3C//DTD SVG 1.1//EN" "http://www.w3.org/Graphics/SVG/1.1/DTD/svg11.dtd"><svg t="1578397957576" class="icon" viewBox="0 0 1024 1024" version="1.1" xmlns="http://www.w3.org/2000/svg" p-id="821" xmlns:xlink="http://www.w3.org/1999/xlink" width="200" height="200"><defs><style type="text/css"></style></defs><path d="M512 2.27555555c281.51352889 0 509.72444445 228.21091555 509.72444445 509.72444445S793.51352889 1021.72444445 512 1021.72444445 2.27555555 793.51352889 2.27555555 512 230.48647111 2.27555555 512 2.27555555z m0 91.02222223c-231.24195555 0-418.70222222 187.46026667-418.70222222 418.70222222s187.46026667 418.70222222 418.70222222 418.70222222 418.70222222-187.46026667 418.70222222-418.70222222-187.46026667-418.70222222-418.70222222-418.70222222z m-91.02222222 224.62805333a36.40888889 36.40888889 0 0 1 18.20444444 4.87879111l273.07008 157.66528c17.41368889 10.05340445 23.38019555 32.32085333 13.32565333 49.73568a36.40888889 36.40888889 0 0 1-13.32565333 13.32451556L439.18336 701.19537778c-17.41482667 10.05454222-39.68227555 4.08917333-49.73568-13.32451556A36.40888889 36.40888889 0 0 1 384.56888889 669.66528V354.33472c0-20.10794667 16.30094222-36.40888889 36.40888889-36.40888889z" p-id="822"></path></svg>