<?xml version="1.0" standalone="no"?><!DOCTYPE svg PUBLIC "-//W3C//DTD SVG 1.1//EN" "http://www.w3.org/Graphics/SVG/1.1/DTD/svg11.dtd"><svg t="1577703622316" class="icon" viewBox="0 0 1024 1024" version="1.1" xmlns="http://www.w3.org/2000/svg" p-id="763" xmlns:xlink="http://www.w3.org/1999/xlink" width="200" height="200"><defs><style type="text/css"></style></defs><path d="M933.8012631 161.82822685c-159.30850964-0.3318027-305.68294961-54.94245391-421.99388191-146.18057842-116.36561116 91.04550571-262.49151071 145.85001969-421.63598251 146.18057842-106.07726015 347.38687181 76.48225113 720.80964661 421.77392367 846.52536627C857.31901198 882.63787346 1039.90710545 509.21509866 933.8012631 161.82822685zM135.1051085 514.64820295l376.8948915 0L512 85.99218252c112.28829742 78.18102799 241.59046254 122.94945966 378.27802149 130.99845768 23.98419778 100.71623331 22.24813943 202.44775519-1.43035232 297.65756397L512 514.64820295 512 947.84630996c-0.01864014 0.00745654-0.03603873 0.01491186-0.05467887 0.02236841C318.27603061 870.19094501 182.57145219 705.53134937 135.1051085 514.64820295z" p-id="764"></path></svg>